# xmcd
#
# Track frame offsets:
#	150
#	18991
#	41542
#	61440
#	84700
#	107768
#	130153
#	150842
#	166376
#	184200
#	208839
#
# Disc length: 3173 seconds
# Revision: 0
# Processed by: cddbd v1.5.2PL0 Copyright (c) Steve Scherf et al.
# Submitted via: dBpowerAMP V12.0
#
DISCID=8d0c630b
DTITLE=Dumpstaphunk - Dirty Word
DYEAR=2013
DGENRE=Blues Funk
TTITLE0=Dancin' to the Truth 
TTITLE1=Dirty Word 
TTITLE2=I Wish You Would 
TTITLE3=They Don't Care 
TTITLE4=I Know You Know 
TTITLE5=If I'm in Luck 
TTITLE6=Water 
TTITLE7=Blueswave 
TTITLE8=Reality of the Situation 
TTITLE9=Take Time 
TTITLE10=Raise the House 
EXTD=
EXTT0=
EXTT1=
EXTT2=
EXTT3=
EXTT4=
EXTT5=
EXTT6=
EXTT7=
EXTT8=
EXTT9=
EXTT10=
PLAYORDER=
